<svg width="376" height="71" viewBox="0 0 376 71" fill="none" xmlns="http://www.w3.org/2000/svg">
<path d="M185.045 71L75.7262 71L8.88873 7.62939e-06L367.111 7.62939e-06L303.228 71L185.045 71Z" fill="#BFC6CC"/>
<line y1="-1" x2="95.557" y2="-1" transform="matrix(-0.669278 0.743012 -0.896779 -0.442479 374 0)" stroke="#BFC6CE" stroke-width="2"/>
<line y1="-1" x2="98.4615" y2="-1" transform="matrix(-0.692837 -0.721094 0.884923 -0.465738 70.2178 71)" stroke="#BFC6CE" stroke-width="2"/>
<path d="M141.54 43L135.62 29H140.7L145.52 40.82H142.5L147.46 29H152.1L146.18 43H141.54ZM150.542 43L156.662 29H161.302L167.422 43H162.542L158.022 31.24H159.862L155.342 43H150.542ZM154.182 40.56L155.382 37.16H161.822L163.022 40.56H154.182ZM168.175 43V29H172.895V39.34H179.215V43H168.175ZM180.519 43V29H187.259C188.566 29 189.692 29.2133 190.639 29.64C191.599 30.0667 192.339 30.68 192.859 31.48C193.379 32.2667 193.639 33.2 193.639 34.28C193.639 35.36 193.379 36.2933 192.859 37.08C192.339 37.8533 191.599 38.4467 190.639 38.86C189.692 39.2733 188.566 39.48 187.259 39.48H183.139L185.239 37.54V43H180.519ZM188.899 43L185.459 37.9H190.459L193.939 43H188.899ZM185.239 38.06L183.139 35.92H186.959C187.612 35.92 188.092 35.7733 188.399 35.48C188.719 35.1867 188.879 34.7867 188.879 34.28C188.879 33.7733 188.719 33.3733 188.399 33.08C188.092 32.7867 187.612 32.64 186.959 32.64H183.139L185.239 30.5V38.06ZM202.121 43.32C199.975 43.32 198.301 42.74 197.101 41.58C195.901 40.42 195.301 38.7933 195.301 36.7V29H200.021V36.56C200.021 37.6267 200.215 38.3867 200.601 38.84C200.988 39.28 201.508 39.5 202.161 39.5C202.828 39.5 203.348 39.28 203.721 38.84C204.108 38.3867 204.301 37.6267 204.301 36.56V29H208.941V36.7C208.941 38.7933 208.341 40.42 207.141 41.58C205.941 42.74 204.268 43.32 202.121 43.32ZM212.907 43.2C212.161 43.2 211.534 42.96 211.027 42.48C210.521 41.9867 210.267 41.36 210.267 40.6C210.267 39.8267 210.521 39.2067 211.027 38.74C211.534 38.2733 212.161 38.04 212.907 38.04C213.654 38.04 214.281 38.2733 214.787 38.74C215.294 39.2067 215.547 39.8267 215.547 40.6C215.547 41.36 215.294 41.9867 214.787 42.48C214.281 42.96 213.654 43.2 212.907 43.2Z" fill="#101823"/>
<path d="M217.081 43V29H223.821C225.128 29 226.255 29.2133 227.201 29.64C228.161 30.0667 228.901 30.68 229.421 31.48C229.941 32.2667 230.201 33.2 230.201 34.28C230.201 35.36 229.941 36.2933 229.421 37.08C228.901 37.8533 228.161 38.4467 227.201 38.86C226.255 39.2733 225.128 39.48 223.821 39.48H219.701L221.801 37.54V43H217.081ZM225.461 43L222.021 37.9H227.021L230.501 43H225.461ZM221.801 38.06L219.701 35.92H223.521C224.175 35.92 224.655 35.7733 224.961 35.48C225.281 35.1867 225.441 34.7867 225.441 34.28C225.441 33.7733 225.281 33.3733 224.961 33.08C224.655 32.7867 224.175 32.64 223.521 32.64H219.701L221.801 30.5V38.06ZM238.684 43.32C236.537 43.32 234.864 42.74 233.664 41.58C232.464 40.42 231.864 38.7933 231.864 36.7V29H236.584V36.56C236.584 37.6267 236.777 38.3867 237.164 38.84C237.55 39.28 238.07 39.5 238.724 39.5C239.39 39.5 239.91 39.28 240.284 38.84C240.67 38.3867 240.864 37.6267 240.864 36.56V29H245.504V36.7C245.504 38.7933 244.904 40.42 243.704 41.58C242.504 42.74 240.83 43.32 238.684 43.32Z" fill="#FF4654"/>
</svg>
